<svg id="visual" viewBox="0 0 1920 1080" width="1920" height="1080" xmlns="http://www.w3.org/2000/svg" xmlns:xlink="http://www.w3.org/1999/xlink" version="1.1"><rect x="0" y="0" width="1920" height="1080" fill="#11111b"></rect><defs><linearGradient id="grad1_0" x1="43.8%" y1="0%" x2="100%" y2="100%"><stop offset="14.444444444444446%" stop-color="#ff8f31" stop-opacity="1"></stop><stop offset="85.55555555555554%" stop-color="#ff8f31" stop-opacity="1"></stop></linearGradient></defs><defs><linearGradient id="grad1_1" x1="43.8%" y1="0%" x2="100%" y2="100%"><stop offset="14.444444444444446%" stop-color="#ff8f31" stop-opacity="1"></stop><stop offset="85.55555555555554%" stop-color="#ed6c49" stop-opacity="1"></stop></linearGradient></defs><defs><linearGradient id="grad1_2" x1="43.8%" y1="0%" x2="100%" y2="100%"><stop offset="14.444444444444446%" stop-color="#cf5159" stop-opacity="1"></stop><stop offset="85.55555555555554%" stop-color="#ed6c49" stop-opacity="1"></stop></linearGradient></defs><defs><linearGradient id="grad1_3" x1="43.8%" y1="0%" x2="100%" y2="100%"><stop offset="14.444444444444446%" stop-color="#cf5159" stop-opacity="1"></stop><stop offset="85.55555555555554%" stop-color="#a74160" stop-opacity="1"></stop></linearGradient></defs><defs><linearGradient id="grad1_4" x1="43.8%" y1="0%" x2="100%" y2="100%"><stop offset="14.444444444444446%" stop-color="#7b365c" stop-opacity="1"></stop><stop offset="85.55555555555554%" stop-color="#a74160" stop-opacity="1"></stop></linearGradient></defs><defs><linearGradient id="grad1_5" x1="43.8%" y1="0%" x2="100%" y2="100%"><stop offset="14.444444444444446%" stop-color="#7b365c" stop-opacity="1"></stop><stop offset="85.55555555555554%" stop-color="#502d4e" stop-opacity="1"></stop></linearGradient></defs><defs><linearGradient id="grad1_6" x1="43.8%" y1="0%" x2="100%" y2="100%"><stop offset="14.444444444444446%" stop-color="#2b2137" stop-opacity="1"></stop><stop offset="85.55555555555554%" stop-color="#502d4e" stop-opacity="1"></stop></linearGradient></defs><defs><linearGradient id="grad1_7" x1="43.8%" y1="0%" x2="100%" y2="100%"><stop offset="14.444444444444446%" stop-color="#2b2137" stop-opacity="1"></stop><stop offset="85.55555555555554%" stop-color="#11111b" stop-opacity="1"></stop></linearGradient></defs><defs><linearGradient id="grad2_0" x1="0%" y1="0%" x2="56.3%" y2="100%"><stop offset="14.444444444444446%" stop-color="#ff8f31" stop-opacity="1"></stop><stop offset="85.55555555555554%" stop-color="#ff8f31" stop-opacity="1"></stop></linearGradient></defs><defs><linearGradient id="grad2_1" x1="0%" y1="0%" x2="56.3%" y2="100%"><stop offset="14.444444444444446%" stop-color="#ed6c49" stop-opacity="1"></stop><stop offset="85.55555555555554%" stop-color="#ff8f31" stop-opacity="1"></stop></linearGradient></defs><defs><linearGradient id="grad2_2" x1="0%" y1="0%" x2="56.3%" y2="100%"><stop offset="14.444444444444446%" stop-color="#ed6c49" stop-opacity="1"></stop><stop offset="85.55555555555554%" stop-color="#cf5159" stop-opacity="1"></stop></linearGradient></defs><defs><linearGradient id="grad2_3" x1="0%" y1="0%" x2="56.3%" y2="100%"><stop offset="14.444444444444446%" stop-color="#a74160" stop-opacity="1"></stop><stop offset="85.55555555555554%" stop-color="#cf5159" stop-opacity="1"></stop></linearGradient></defs><defs><linearGradient id="grad2_4" x1="0%" y1="0%" x2="56.3%" y2="100%"><stop offset="14.444444444444446%" stop-color="#a74160" stop-opacity="1"></stop><stop offset="85.55555555555554%" stop-color="#7b365c" stop-opacity="1"></stop></linearGradient></defs><defs><linearGradient id="grad2_5" x1="0%" y1="0%" x2="56.3%" y2="100%"><stop offset="14.444444444444446%" stop-color="#502d4e" stop-opacity="1"></stop><stop offset="85.55555555555554%" stop-color="#7b365c" stop-opacity="1"></stop></linearGradient></defs><defs><linearGradient id="grad2_6" x1="0%" y1="0%" x2="56.3%" y2="100%"><stop offset="14.444444444444446%" stop-color="#502d4e" stop-opacity="1"></stop><stop offset="85.55555555555554%" stop-color="#2b2137" stop-opacity="1"></stop></linearGradient></defs><defs><linearGradient id="grad2_7" x1="0%" y1="0%" x2="56.3%" y2="100%"><stop offset="14.444444444444446%" stop-color="#11111b" stop-opacity="1"></stop><stop offset="85.55555555555554%" stop-color="#2b2137" stop-opacity="1"></stop></linearGradient></defs><g transform="translate(1920, 0)"><path d="M0 1058C-121.7 1069.5 -243.3 1081.1 -333.7 1027.1C-424.2 973.2 -483.3 853.8 -568.4 782.3C-653.4 710.8 -764.4 687.2 -852.7 619.5C-941 551.9 -1006.7 440.3 -1014.8 329.7C-1022.9 219.1 -973.4 109.6 -924 0L0 0Z" fill="#1c1a29"></path><path d="M0 925.8C-106.5 935.8 -212.9 945.9 -292 898.7C-371.1 851.6 -422.9 747.1 -497.3 684.5C-571.8 622 -668.8 601.3 -746.1 542.1C-823.4 482.9 -880.8 385.3 -887.9 288.5C-895 191.7 -851.8 95.9 -808.5 0L0 0Z" fill="#3c2744"></path><path d="M0 793.5C-91.2 802.1 -182.5 810.8 -250.3 770.4C-318.1 729.9 -362.5 640.4 -426.3 586.7C-490.1 533.1 -573.3 515.4 -639.5 464.6C-705.8 413.9 -755 330.2 -761.1 247.3C-767.2 164.4 -730.1 82.2 -693 0L0 0Z" fill="#653256"></path><path d="M0 661.3C-76 668.5 -152.1 675.7 -208.6 642C-265.1 608.3 -302.1 533.6 -355.2 488.9C-408.4 444.3 -477.7 429.5 -532.9 387.2C-588.1 344.9 -629.2 275.2 -634.2 206.1C-639.3 137 -608.4 68.5 -577.5 0L0 0Z" fill="#913b5f"></path><path d="M0 529C-60.8 534.8 -121.7 540.5 -166.9 513.6C-212.1 486.6 -241.7 426.9 -284.2 391.2C-326.7 355.4 -382.2 343.6 -426.4 309.8C-470.5 276 -503.3 220.2 -507.4 164.9C-511.4 109.6 -486.7 54.8 -462 0L0 0Z" fill="#bc485d"></path><path d="M0 396.8C-45.6 401.1 -91.2 405.4 -125.2 385.2C-159.1 365 -181.2 320.2 -213.1 293.4C-245 266.6 -286.6 257.7 -319.8 232.3C-352.9 207 -377.5 165.1 -380.5 123.6C-383.6 82.2 -365 41.1 -346.5 0L0 0Z" fill="#e05d52"></path><path d="M0 264.5C-30.4 267.4 -60.8 270.3 -83.4 256.8C-106 243.3 -120.8 213.5 -142.1 195.6C-163.4 177.7 -191.1 171.8 -213.2 154.9C-235.3 138 -251.7 110.1 -253.7 82.4C-255.7 54.8 -243.4 27.4 -231 0L0 0Z" fill="#f87d3e"></path><path d="M0 132.3C-15.2 133.7 -30.4 135.1 -41.7 128.4C-53 121.7 -60.4 106.7 -71 97.8C-81.7 88.9 -95.5 85.9 -106.6 77.4C-117.6 69 -125.8 55 -126.8 41.2C-127.9 27.4 -121.7 13.7 -115.5 0L0 0Z" fill="#ff8f31"></path></g><g transform="translate(0, 1080)"><path d="M0 -1003C115.3 -1015.2 230.7 -1027.5 319.2 -982.4C407.8 -937.4 469.6 -835.2 557.8 -767.8C646.1 -700.3 760.7 -667.7 814.7 -591.9C868.6 -516.1 861.8 -397 895.9 -291.1C930 -185.2 1005 -92.6 1080 0L0 0Z" fill="#1c1a29"></path><path d="M0 -877.6C100.9 -888.3 201.8 -899 279.3 -859.6C356.8 -820.3 410.9 -730.8 488.1 -671.8C565.3 -612.8 665.6 -584.3 712.8 -517.9C760 -451.5 754.1 -347.3 783.9 -254.7C813.7 -162.1 879.4 -81 945 0L0 0Z" fill="#3c2744"></path><path d="M0 -752.2C86.5 -761.4 173 -770.6 239.4 -736.8C305.8 -703.1 352.2 -626.4 418.4 -575.8C484.5 -525.3 570.6 -500.8 611 -443.9C651.5 -387 646.4 -297.7 671.9 -218.3C697.5 -138.9 753.7 -69.5 810 0L0 0Z" fill="#653256"></path><path d="M0 -626.9C72.1 -634.5 144.2 -642.2 199.5 -614C254.9 -585.9 293.5 -522 348.6 -479.8C403.8 -437.7 475.5 -417.3 509.2 -369.9C542.9 -322.5 538.6 -248.1 559.9 -181.9C581.2 -115.8 628.1 -57.9 675 0L0 0Z" fill="#913b5f"></path><path d="M0 -501.5C57.7 -507.6 115.3 -513.7 159.6 -491.2C203.9 -468.7 234.8 -417.6 278.9 -383.9C323 -350.2 380.4 -333.9 407.3 -295.9C434.3 -258 430.9 -198.5 447.9 -145.5C465 -92.6 502.5 -46.3 540 0L0 0Z" fill="#bc485d"></path><path d="M0 -376.1C43.2 -380.7 86.5 -385.3 119.7 -368.4C152.9 -351.5 176.1 -313.2 209.2 -287.9C242.3 -262.6 285.3 -250.4 305.5 -222C325.7 -193.5 323.2 -148.9 336 -109.2C348.7 -69.5 376.9 -34.7 405 0L0 0Z" fill="#e05d52"></path><path d="M0 -250.7C28.8 -253.8 57.7 -256.9 79.8 -245.6C101.9 -234.4 117.4 -208.8 139.5 -191.9C161.5 -175.1 190.2 -166.9 203.7 -148C217.2 -129 215.5 -99.2 224 -72.8C232.5 -46.3 251.2 -23.2 270 0L0 0Z" fill="#f87d3e"></path><path d="M0 -125.4C14.4 -126.9 28.8 -128.4 39.9 -122.8C51 -117.2 58.7 -104.4 69.7 -96C80.8 -87.5 95.1 -83.5 101.8 -74C108.6 -64.5 107.7 -49.6 112 -36.4C116.2 -23.2 125.6 -11.6 135 0L0 0Z" fill="#ff8f31"></path></g></svg>